<svg width="545" height="92" viewBox="0 0 545 92" fill="none" xmlns="http://www.w3.org/2000/svg">
<path d="M41.4 64.4H40.2C38.6 67.4 36.4 69.6667 33.6 71.2C30.8667 72.6667 27.8667 73.4 24.6 73.4C21.2667 73.4 18.1333 72.8333 15.2 71.7C12.2667 70.5667 9.66667 68.9333 7.4 66.8C5.2 64.6667 3.43333 62.0333 2.1 58.9C0.833333 55.7 0.2 52.0667 0.2 48V46.4C0.2 42.4 0.866667 38.8333 2.2 35.7C3.53333 32.5 5.3 29.8333 7.5 27.7C9.7 25.5 12.2667 23.8333 15.2 22.7C18.1333 21.5667 21.2 21 24.4 21C28 21 31.1333 21.8 33.8 23.4C36.5333 24.9333 38.6667 27.2 40.2 30.2H41.4V22.4H49.2V84.2C49.2 86.4667 48.4667 88.3333 47 89.8C45.6 91.2667 43.7667 92 41.5 92H9.2V84.8H38.7C40.5 84.8 41.4 83.8 41.4 81.8V64.4ZM24.8 66C27.1333 66 29.3 65.5667 31.3 64.7C33.3 63.8333 35.0333 62.6 36.5 61C38.0333 59.4 39.2333 57.5 40.1 55.3C40.9667 53.0333 41.4 50.5333 41.4 47.8V46.6C41.4 43.9333 40.9667 41.5 40.1 39.3C39.2333 37.0333 38.0333 35.1 36.5 33.5C35.0333 31.9 33.2667 30.6667 31.2 29.8C29.2 28.8667 27.0667 28.4 24.8 28.4C22.4667 28.4 20.2667 28.8333 18.2 29.7C16.2 30.5667 14.4333 31.8 12.9 33.4C11.4333 35 10.2667 36.9 9.4 39.1C8.6 41.3 8.2 43.7333 8.2 46.4V48C8.2 50.8 8.6 53.3 9.4 55.5C10.2667 57.7 11.4333 59.6 12.9 61.2C14.4333 62.7333 16.2 63.9333 18.2 64.8C20.2 65.6 22.4 66 24.8 66ZM80.3305 7.59999C80.3305 5.66666 80.9971 4.03333 82.3305 2.7C83.7305 1.3 85.3971 0.599995 87.3305 0.599995C89.2638 0.599995 90.8971 1.3 92.2305 2.7C93.6305 4.03333 94.3305 5.66666 94.3305 7.59999C94.3305 9.53333 93.6305 11.2 92.2305 12.6C90.8971 13.9333 89.2638 14.6 87.3305 14.6C85.3971 14.6 83.7305 13.9333 82.3305 12.6C80.9971 11.2 80.3305 9.53333 80.3305 7.59999ZM66.1305 64.8H83.5305V29.6H67.9305V22.4H91.3305V64.8H107.53V72H66.1305V64.8ZM124.461 22.4H140.061V2H147.861V22.4H167.061V29.6H147.861V61.8C147.861 63.8 148.761 64.8 150.561 64.8H164.661V72H147.761C145.494 72 143.628 71.2667 142.161 69.8C140.761 68.3333 140.061 66.4667 140.061 64.2V29.6H124.461V22.4ZM465.213 61.6L431.613 48.08V39.92L465.213 26.4V33.12L438.093 43.52V44.48L465.213 54.88V61.6ZM473.223 88L496.743 16H503.063L479.543 88H473.223ZM510.832 61.6V54.88L538.032 44.48V43.52L510.832 33.12V26.4L544.432 39.92V48.08L510.832 61.6Z" fill="white"/>
<path d="M209.491 61.4C212.025 61.4 214.091 61.0333 215.691 60.3C217.358 59.5 218.625 58.4667 219.491 57.2C220.425 55.8667 221.058 54.3667 221.391 52.7C221.725 50.9667 221.891 49.2 221.891 47.4V45.6H235.091V47.4C235.091 55.7333 232.891 62.1667 228.491 66.7C224.158 71.1667 217.825 73.4 209.491 73.4C201.491 73.4 195.158 70.9667 190.491 66.1C185.825 61.2333 183.491 54.1333 183.491 44.8V29.2C183.491 24.7333 184.091 20.7333 185.291 17.2C186.491 13.6 188.225 10.6 190.491 8.2C192.758 5.73333 195.491 3.86667 198.691 2.6C201.891 1.26666 205.491 0.599995 209.491 0.599995C213.625 0.599995 217.291 1.2 220.491 2.4C223.691 3.6 226.358 5.33333 228.491 7.59999C230.691 9.86666 232.325 12.6 233.391 15.8C234.525 19 235.091 22.6 235.091 26.6V28.4H221.891V26.6C221.891 24.9333 221.691 23.2667 221.291 21.6C220.891 19.9333 220.225 18.4333 219.291 17.1C218.358 15.7667 217.091 14.7 215.491 13.9C213.891 13.0333 211.891 12.6 209.491 12.6C207.291 12.6 205.391 13.0333 203.791 13.9C202.191 14.7 200.858 15.8333 199.791 17.3C198.725 18.7 197.925 20.3667 197.391 22.3C196.925 24.1667 196.691 26.1333 196.691 28.2V45.8C196.691 48.0667 196.925 50.1667 197.391 52.1C197.858 53.9667 198.591 55.6 199.591 57C200.591 58.4 201.891 59.5 203.491 60.3C205.158 61.0333 207.158 61.4 209.491 61.4ZM296.322 47.8C296.322 51.9333 295.622 55.6 294.222 58.8C292.822 61.9333 290.922 64.6 288.522 66.8C286.122 68.9333 283.355 70.5667 280.222 71.7C277.155 72.8333 273.922 73.4 270.522 73.4C267.122 73.4 263.855 72.8333 260.722 71.7C257.655 70.5667 254.922 68.9333 252.522 66.8C250.122 64.6 248.222 61.9333 246.822 58.8C245.422 55.6 244.722 51.9333 244.722 47.8V46.6C244.722 42.5333 245.422 38.9333 246.822 35.8C248.222 32.6 250.122 29.9 252.522 27.7C254.922 25.5 257.655 23.8333 260.722 22.7C263.855 21.5667 267.122 21 270.522 21C273.922 21 277.155 21.5667 280.222 22.7C283.355 23.8333 286.122 25.5 288.522 27.7C290.922 29.9 292.822 32.6 294.222 35.8C295.622 38.9333 296.322 42.5333 296.322 46.6V47.8ZM270.522 61.4C272.322 61.4 274.022 61.1 275.622 60.5C277.222 59.9 278.622 59.0333 279.822 57.9C281.022 56.7667 281.955 55.4 282.622 53.8C283.355 52.1333 283.722 50.2667 283.722 48.2V46.2C283.722 44.1333 283.355 42.3 282.622 40.7C281.955 39.0333 281.022 37.6333 279.822 36.5C278.622 35.3667 277.222 34.5 275.622 33.9C274.022 33.3 272.322 33 270.522 33C268.722 33 267.022 33.3 265.422 33.9C263.822 34.5 262.422 35.3667 261.222 36.5C260.022 37.6333 259.055 39.0333 258.322 40.7C257.655 42.3 257.322 44.1333 257.322 46.2V48.2C257.322 50.2667 257.655 52.1333 258.322 53.8C259.055 55.4 260.022 56.7667 261.222 57.9C262.422 59.0333 263.822 59.9 265.422 60.5C267.022 61.1 268.722 61.4 270.522 61.4ZM344.552 64.8H342.752C342.219 65.9333 341.552 67.0333 340.752 68.1C340.019 69.1 339.019 70 337.752 70.8C336.552 71.6 335.086 72.2333 333.352 72.7C331.686 73.1667 329.652 73.4 327.252 73.4C324.186 73.4 321.319 72.8667 318.652 71.8C316.052 70.6667 313.752 69.0333 311.752 66.9C309.819 64.7 308.286 62.0333 307.152 58.9C306.086 55.7667 305.552 52.1667 305.552 48.1V46.3C305.552 42.3 306.119 38.7333 307.252 35.6C308.452 32.4667 310.052 29.8333 312.052 27.7C314.119 25.5 316.486 23.8333 319.152 22.7C321.886 21.5667 324.752 21 327.752 21C331.752 21 334.919 21.7667 337.252 23.3C339.586 24.7667 341.419 26.8667 342.752 29.6H344.552V2H357.152V72H344.552V64.8ZM331.352 61.4C335.286 61.4 338.452 60.1667 340.852 57.7C343.319 55.1667 344.552 51.8667 344.552 47.8V46.6C344.552 42.5333 343.319 39.2667 340.852 36.8C338.452 34.2667 335.286 33 331.352 33C327.419 33 324.219 34.2333 321.752 36.7C319.352 39.1 318.152 42.4 318.152 46.6V47.8C318.152 52 319.352 55.3333 321.752 57.8C324.219 60.2 327.419 61.4 331.352 61.4ZM381.283 51.3C381.349 52.7667 381.683 54.1333 382.283 55.4C382.949 56.6 383.816 57.6667 384.883 58.6C386.016 59.4667 387.283 60.1667 388.683 60.7C390.149 61.1667 391.683 61.4 393.283 61.4C396.416 61.4 398.816 60.8667 400.483 59.8C402.149 58.6667 403.349 57.3333 404.083 55.8L414.883 61.8C414.283 63.0667 413.449 64.4 412.383 65.8C411.316 67.1333 409.916 68.3667 408.183 69.5C406.516 70.6333 404.449 71.5667 401.983 72.3C399.583 73.0333 396.749 73.4 393.483 73.4C389.749 73.4 386.349 72.8 383.283 71.6C380.216 70.4 377.549 68.6667 375.283 66.4C373.083 64.1333 371.349 61.3667 370.083 58.1C368.883 54.8333 368.283 51.1333 368.283 47V46.4C368.283 42.6 368.916 39.1333 370.183 36C371.516 32.8667 373.316 30.2 375.583 28C377.849 25.8 380.483 24.1 383.483 22.9C386.549 21.6333 389.816 21 393.283 21C397.549 21 401.216 21.7667 404.283 23.3C407.349 24.7667 409.883 26.6667 411.883 29C413.883 31.2667 415.349 33.8 416.283 36.6C417.216 39.3333 417.683 42 417.683 44.6V51.3H381.283ZM393.183 32.4C389.983 32.4 387.383 33.2333 385.383 34.9C383.383 36.5 382.083 38.3667 381.483 40.5H404.883C404.483 38.1667 403.216 36.2333 401.083 34.7C399.016 33.1667 396.383 32.4 393.183 32.4Z" fill="#44BD32"/>
</svg>
